<svg id="visual" viewBox="0 0 960 540" width="960" height="540" xmlns="http://www.w3.org/2000/svg" xmlns:xlink="http://www.w3.org/1999/xlink" version="1.1"><path d="M853 540L841.8 531.8C830.7 523.7 808.3 507.3 802 491C795.7 474.7 805.3 458.3 795.8 442C786.3 425.7 757.7 409.3 748 393C738.3 376.7 747.7 360.3 763.7 344C779.7 327.7 802.3 311.3 810.3 294.8C818.3 278.3 811.7 261.7 814.8 245.2C818 228.7 831 212.3 842.3 196C853.7 179.7 863.3 163.3 840.8 147C818.3 130.7 763.7 114.3 750.8 98C738 81.7 767 65.3 794.3 49C821.7 32.7 847.3 16.3 860.2 8.2L873 0L960 0L960 8.2C960 16.3 960 32.7 960 49C960 65.3 960 81.7 960 98C960 114.3 960 130.7 960 147C960 163.3 960 179.7 960 196C960 212.3 960 228.7 960 245.2C960 261.7 960 278.3 960 294.8C960 311.3 960 327.7 960 344C960 360.3 960 376.7 960 393C960 409.3 960 425.7 960 442C960 458.3 960 474.7 960 491C960 507.3 960 523.7 960 531.8L960 540Z" fill="#0066ff"></path><path d="M700 540L700 531.8C700 523.7 700 507.3 701.5 491C703 474.7 706 458.3 698 442C690 425.7 671 409.3 653.5 393C636 376.7 620 360.3 626.3 344C632.7 327.7 661.3 311.3 669.3 294.8C677.3 278.3 664.7 261.7 667.8 245.2C671 228.7 690 212.3 712.3 196C734.7 179.7 760.3 163.3 736.3 147C712.3 130.7 638.7 114.3 621.2 98C603.7 81.7 642.3 65.3 677.7 49C713 32.7 745 16.3 761 8.2L777 0L874 0L861.2 8.2C848.3 16.3 822.7 32.7 795.3 49C768 65.3 739 81.7 751.8 98C764.7 114.3 819.3 130.7 841.8 147C864.3 163.3 854.7 179.7 843.3 196C832 212.3 819 228.7 815.8 245.2C812.7 261.7 819.3 278.3 811.3 294.8C803.3 311.3 780.7 327.7 764.7 344C748.7 360.3 739.3 376.7 749 393C758.7 409.3 787.3 425.7 796.8 442C806.3 458.3 796.7 474.7 803 491C809.3 507.3 831.7 523.7 842.8 531.8L854 540Z" fill="#0052c5"></path><path d="M287 540L327 531.8C367 523.7 447 507.3 490.2 491C533.3 474.7 539.7 458.3 517.3 442C495 425.7 444 409.3 412 393C380 376.7 367 360.3 365.3 344C363.7 327.7 373.3 311.3 383 294.8C392.7 278.3 402.3 261.7 397.5 245.2C392.7 228.7 373.3 212.3 400.5 196C427.7 179.7 501.3 163.3 507.8 147C514.3 130.7 453.7 114.3 423.3 98C393 81.7 393 65.3 412.2 49C431.3 32.7 469.7 16.3 488.8 8.2L508 0L778 0L762 8.2C746 16.3 714 32.7 678.7 49C643.3 65.3 604.7 81.7 622.2 98C639.7 114.3 713.3 130.7 737.3 147C761.3 163.3 735.7 179.7 713.3 196C691 212.3 672 228.7 668.8 245.2C665.7 261.7 678.3 278.3 670.3 294.8C662.3 311.3 633.7 327.7 627.3 344C621 360.3 637 376.7 654.5 393C672 409.3 691 425.7 699 442C707 458.3 704 474.7 702.5 491C701 507.3 701 523.7 701 531.8L701 540Z" fill="#003e8c"></path><path d="M95 540L106.2 531.8C117.3 523.7 139.7 507.3 141.3 491C143 474.7 124 458.3 117.7 442C111.3 425.7 117.7 409.3 119.2 393C120.7 376.7 117.3 360.3 114.2 344C111 327.7 108 311.3 120.8 294.8C133.7 278.3 162.3 261.7 165.5 245.2C168.7 228.7 146.3 212.3 148 196C149.7 179.7 175.3 163.3 173.7 147C172 130.7 143 114.3 123.7 98C104.3 81.7 94.7 65.3 107.5 49C120.3 32.7 155.7 16.3 173.3 8.2L191 0L509 0L489.8 8.2C470.7 16.3 432.3 32.7 413.2 49C394 65.3 394 81.7 424.3 98C454.7 114.3 515.3 130.7 508.8 147C502.3 163.3 428.7 179.7 401.5 196C374.3 212.3 393.7 228.7 398.5 245.2C403.3 261.7 393.7 278.3 384 294.8C374.3 311.3 364.7 327.7 366.3 344C368 360.3 381 376.7 413 393C445 409.3 496 425.7 518.3 442C540.7 458.3 534.3 474.7 491.2 491C448 507.3 368 523.7 328 531.8L288 540Z" fill="#002955"></path><path d="M0 540L0 531.8C0 523.7 0 507.3 0 491C0 474.7 0 458.3 0 442C0 425.7 0 409.3 0 393C0 376.7 0 360.3 0 344C0 327.7 0 311.3 0 294.8C0 278.3 0 261.7 0 245.2C0 228.7 0 212.3 0 196C0 179.7 0 163.3 0 147C0 130.7 0 114.3 0 98C0 81.7 0 65.3 0 49C0 32.7 0 16.3 0 8.2L0 0L192 0L174.3 8.2C156.7 16.3 121.3 32.7 108.5 49C95.7 65.3 105.3 81.7 124.7 98C144 114.3 173 130.7 174.7 147C176.3 163.3 150.7 179.7 149 196C147.3 212.3 169.7 228.7 166.5 245.2C163.3 261.7 134.7 278.3 121.8 294.8C109 311.3 112 327.7 115.2 344C118.3 360.3 121.7 376.7 120.2 393C118.7 409.3 112.3 425.7 118.7 442C125 458.3 144 474.7 142.3 491C140.7 507.3 118.3 523.7 107.2 531.8L96 540Z" fill="#001122" fill-opacity="0"></path></svg>